PathFileType	4	(X/Y/Z)	D:\Share\Shared_Data\Ergonomics\Sit To Stand Pertubation\S1\Unperturbed_NoHarness.trc
DataRate	CameraRate	NumFrames	NumMarkers	Units	OrigDataRate	OrigDataStartFrame	OrigNumFrames	
100	100	6	18	m	100	3011	261
Frame#	Time	R_Thigh_Med			R_ASIS			R_Pelvis			V_Sacral			L_Pelvis			L_ASIS			Clavical			R_Acromium			L_Acromium			Sternum			Torso			R_Thigh_Lat			R_Thigh			R_Shank_Med			R_Shank_Lat			R_Shank			R_Heel			R_Toe			
		X1	Y1	Z1	X2	Y2	Z2	X3	Y3	Z3	X4	Y4	Z4	X5	Y5	Z5	X6	Y6	Z6	X7	Y7	Z7	X8	Y8	Z8	X9	Y9	Z9	X10	Y10	Z10	X11	Y11	Z11	X12	Y12	Z12	X13	Y13	Z13	X14	Y14	Z14	X15	Y15	Z15	X16	Y16	Z16	X17	Y17	Z17	X18	Y18	Z18	

3011	30.1	0.34092151	0.41139664	0.0046070113	0.054113529	0.63452399	0.086334785	-0.030023123	0.63433344	0.12340018	-0.134336	0.56483716	-0.011184936	-0.034971027	0.62980524	-0.15350529	0.060666344	0.64368323	-0.11486023	0.09062812	0.9622149	-0.021200848	0.038765339	1.0418517	0.12867554	-0.02777751	1.0009184	-0.21397099	0.077646217	0.97649426	0.080705482	0.084137321	0.96666016	-0.081563744	0.3412482	0.43255399	0.1262099	0.21446495	0.55006458	0.078733543	0.32021112	0.095644165	0.066742065	0.29404956	0.10167004	0.1459438	0.32326978	0.31201224	0.14870529	0.24487697	0.03348455	0.091822289	0.44949966	0.051530247	0.1216943
3012	30.11	0.34108279	0.41146268	0.0047037501	0.053983879	0.63452026	0.086341934	-0.030126047	0.63432074	0.12339277	-0.13443575	0.5647948	-0.011088703	-0.035073891	0.62978607	-0.15348506	0.06055265	0.6436911	-0.11481773	0.091425896	0.96196942	-0.021158102	0.039761448	1.0417163	0.12872682	-0.026811483	1.0010401	-0.21394136	0.078434593	0.97625354	0.080741066	0.085004082	0.96645673	-0.081528503	0.34119205	0.43255756	0.12632088	0.21440675	0.55008899	0.078809212	0.32021338	0.095644341	0.066745132	0.29404886	0.10163733	0.14594339	0.3232157	0.31199014	0.14876547	0.24488301	0.033494289	0.091813164	0.44950485	0.051533157	0.12168897
3013	30.12	0.34123996	0.41153006	0.0048050961	0.053830257	0.63452069	0.086347496	-0.030243738	0.63430548	0.12338621	-0.13454312	0.56475079	-0.01098822	-0.035194397	0.62976251	-0.15346742	0.060417934	0.64370654	-0.11477501	0.092284035	0.9616958	-0.021110706	0.040826855	1.041558	0.12878687	-0.025761566	1.00117	-0.21391562	0.079275215	0.97598798	0.08078437	0.085939346	0.9662326	-0.081483513	0.34112964	0.43256168	0.12643642	0.21434036	0.55010919	0.078897224	0.32021512	0.095643082	0.066749397	0.29404755	0.1016034	0.14594273	0.32315503	0.3119664	0.14883041	0.24488857	0.033503601	0.091803711	0.44951016	0.051536724	0.12168294
3014	30.13	0.34139368	0.41159927	0.0049071307	0.053652664	0.63452533	0.086350883	-0.03037476	0.63428772	0.12338273	-0.13465468	0.56470081	-0.010889814	-0.035334175	0.62973474	-0.15345207	0.060263794	0.64372949	-0.11473125	0.093203644	0.96139276	-0.021056734	0.041966068	1.0413743	0.12885643	-0.024620657	1.0013068	-0.21389417	0.080171333	0.97569586	0.080835152	0.086946754	0.96598285	-0.081428299	0.34106158	0.43256686	0.12655255	0.2142664	0.5501225	0.078997032	0.32021613	0.095640213	0.066754646	0.29404599	0.10156886	0.14594156	0.32308829	0.31194156	0.14889876	0.24489363	0.033512508	0.091794701	0.44951547	0.051540775	0.12167667
3015	30.14	0.34154373	0.4116701	0.0050068936	0.053451767	0.63453473	0.086351959	-0.03051828	0.63426776	0.12338397	-0.13476941	0.56464362	-0.010796139	-0.035494831	0.62970306	-0.1534384	0.060091721	0.64375964	-0.11468584	0.094185738	0.96105847	-0.020993929	0.043184086	1.0411631	0.12893588	-0.023379782	1.0014491	-0.2138755	0.081126572	0.97537463	0.080894096	0.088027382	0.96570483	-0.081361801	0.34098798	0.43257297	0.12666626	0.21418668	0.55012933	0.079105881	0.32021594	0.09563559	0.066760742	0.29404398	0.1015339	0.14593979	0.32301611	0.31191571	0.14896971	0.24489825	0.033521084	0.091786713	0.44952039	0.05154491	0.12167113
3016	30.15	0.34168811	0.41174091	0.0051027875	0.053228779	0.63454901	0.086351166	-0.030673992	0.63424628	0.12339039	-0.13488818	0.5645788	-0.010708589	-0.035677185	0.62966766	-0.15342595	0.05990329	0.64379608	-0.11463864	0.095231598	0.96069055	-0.020920385	0.044485588	1.0409248	0.12902481	-0.022029551	1.0015961	-0.21385646	0.082144852	0.97502216	0.080962944	0.089180153	0.96539771	-0.081282227	0.34090829	0.43257916	0.12677595	0.21410403	0.55013239	0.079219032	0.32021396	0.095629051	0.066767464	0.29404108	0.10149838	0.14593755	0.32293878	0.31188821	0.14904309	0.24490263	0.033529224	0.091779961	0.44952441	0.05154871	0.12166715
